<?xml version="1.0" standalone="no"?>
<!-- <svg viewBox="0 0 200 200" xmlns="http://www.w3.org/2000/svg">
  <path fill="#15253f" d="M55.4,-6.9C55.4,18.1,27.7,36.2,1.2,36.2C-25.4,36.2,-50.8,18.1,-50.8,-6.9C-50.8,-31.9,-25.4,-63.8,1.2,-63.8C27.7,-63.8,55.4,-31.9,55.4,-6.9Z" transform="translate(100 100)" />
</svg> -->

<svg viewBox="0 0 200 200" xmlns="http://www.w3.org/2000/svg">
  <mask id="mask0" mask-type="alpha">
    <path d="M55.4,-6.9C55.4,18.1,27.7,36.2,1.2,36.2C-25.4,36.2,-50.8,18.1,-50.8,-6.9C-50.8,-31.9,-25.4,-63.8,1.2,-63.8C27.7,-63.8,55.4,-31.9,55.4,-6.9Z"/>
  </mask>
  <g mask="url(#mask0)">
    <path d="M55.4,-6.9C55.4,18.1,27.7,36.2,1.2,36.2C-25.4,36.2,-50.8,18.1,-50.8,-6.9C-50.8,-31.9,-25.4,-63.8,1.2,-63.8C27.7,-63.8,55.4,-31.9,55.4,-6.9Z"/>
    <image xlink:href=""/>
  </g>
</svg>